<mxfile host="app.diagrams.net" modified="2020-10-20T10:02:07.602Z" agent="5.0 (Windows NT 10.0; Win64; x64) AppleWebKit/537.36 (KHTML, like Gecko) Chrome/86.0.4240.75 Safari/537.36" etag="RUl9I7ui7VTDxbLPzgMP" version="13.8.0" type="github">
  <diagram id="NKkd3mv0qDFiKEhP95aU" name="Page-1">
    <mxGraphModel dx="2130" dy="1897" grid="1" gridSize="10" guides="1" tooltips="1" connect="1" arrows="1" fold="1" page="1" pageScale="1" pageWidth="827" pageHeight="1169" math="0" shadow="0">
      <root>
        <mxCell id="0" />
        <mxCell id="1" parent="0" />
        <mxCell id="3lEEGQnOu_kQJ59tK7sF-14" value="" style="whiteSpace=wrap;html=1;aspect=fixed;dashed=1;" vertex="1" parent="1">
          <mxGeometry x="160" y="-364" width="430" height="430" as="geometry" />
        </mxCell>
        <mxCell id="3lEEGQnOu_kQJ59tK7sF-34" value="" style="edgeStyle=orthogonalEdgeStyle;rounded=0;orthogonalLoop=1;jettySize=auto;html=1;" edge="1" parent="1" source="3lEEGQnOu_kQJ59tK7sF-32" target="3lEEGQnOu_kQJ59tK7sF-33">
          <mxGeometry relative="1" as="geometry" />
        </mxCell>
        <mxCell id="3lEEGQnOu_kQJ59tK7sF-32" value="" style="rounded=0;whiteSpace=wrap;html=1;dashed=1;" vertex="1" parent="1">
          <mxGeometry x="297" y="-344" width="203" height="240" as="geometry" />
        </mxCell>
        <mxCell id="3lEEGQnOu_kQJ59tK7sF-4" style="edgeStyle=orthogonalEdgeStyle;rounded=0;orthogonalLoop=1;jettySize=auto;html=1;entryX=0.5;entryY=0;entryDx=0;entryDy=0;" edge="1" parent="1" source="3lEEGQnOu_kQJ59tK7sF-1" target="3lEEGQnOu_kQJ59tK7sF-14">
          <mxGeometry relative="1" as="geometry">
            <mxPoint x="-110.00000000000023" y="-123" as="targetPoint" />
          </mxGeometry>
        </mxCell>
        <mxCell id="3lEEGQnOu_kQJ59tK7sF-1" value="HTTP Request" style="rounded=0;whiteSpace=wrap;html=1;" vertex="1" parent="1">
          <mxGeometry x="320" y="-504" width="110" height="60" as="geometry" />
        </mxCell>
        <mxCell id="3lEEGQnOu_kQJ59tK7sF-7" value="" style="edgeStyle=orthogonalEdgeStyle;rounded=0;orthogonalLoop=1;jettySize=auto;html=1;" edge="1" parent="1" source="3lEEGQnOu_kQJ59tK7sF-3" target="3lEEGQnOu_kQJ59tK7sF-6">
          <mxGeometry relative="1" as="geometry" />
        </mxCell>
        <mxCell id="3lEEGQnOu_kQJ59tK7sF-3" value="kafka" style="rounded=0;whiteSpace=wrap;html=1;" vertex="1" parent="1">
          <mxGeometry x="348.5" y="141" width="100" height="60" as="geometry" />
        </mxCell>
        <mxCell id="3lEEGQnOu_kQJ59tK7sF-11" value="" style="edgeStyle=orthogonalEdgeStyle;rounded=0;orthogonalLoop=1;jettySize=auto;html=1;" edge="1" parent="1" source="3lEEGQnOu_kQJ59tK7sF-6" target="3lEEGQnOu_kQJ59tK7sF-10">
          <mxGeometry relative="1" as="geometry" />
        </mxCell>
        <mxCell id="3lEEGQnOu_kQJ59tK7sF-6" value="push getway" style="rounded=0;whiteSpace=wrap;html=1;" vertex="1" parent="1">
          <mxGeometry x="120" y="141" width="120" height="60" as="geometry" />
        </mxCell>
        <mxCell id="3lEEGQnOu_kQJ59tK7sF-13" value="" style="edgeStyle=orthogonalEdgeStyle;rounded=0;orthogonalLoop=1;jettySize=auto;html=1;" edge="1" parent="1" source="3lEEGQnOu_kQJ59tK7sF-10" target="3lEEGQnOu_kQJ59tK7sF-12">
          <mxGeometry relative="1" as="geometry" />
        </mxCell>
        <mxCell id="3lEEGQnOu_kQJ59tK7sF-10" value="Prometheus" style="shape=dataStorage;whiteSpace=wrap;html=1;fixedSize=1;" vertex="1" parent="1">
          <mxGeometry x="120" y="321" width="120" height="90" as="geometry" />
        </mxCell>
        <mxCell id="3lEEGQnOu_kQJ59tK7sF-12" value="Grafana" style="whiteSpace=wrap;html=1;aspect=fixed;" vertex="1" parent="1">
          <mxGeometry x="340" y="326" width="80" height="80" as="geometry" />
        </mxCell>
        <mxCell id="3lEEGQnOu_kQJ59tK7sF-16" value="" style="whiteSpace=wrap;html=1;aspect=fixed;dashed=1;" vertex="1" parent="1">
          <mxGeometry x="-330" y="66" width="350" height="350" as="geometry" />
        </mxCell>
        <mxCell id="3lEEGQnOu_kQJ59tK7sF-17" value="" style="shape=flexArrow;endArrow=classic;html=1;exitX=0;exitY=0.5;exitDx=0;exitDy=0;entryX=1;entryY=0.5;entryDx=0;entryDy=0;" edge="1" parent="1" source="3lEEGQnOu_kQJ59tK7sF-6" target="3lEEGQnOu_kQJ59tK7sF-16">
          <mxGeometry width="50" height="50" relative="1" as="geometry">
            <mxPoint x="-60" y="150" as="sourcePoint" />
            <mxPoint x="-10" y="100" as="targetPoint" />
          </mxGeometry>
        </mxCell>
        <mxCell id="3lEEGQnOu_kQJ59tK7sF-26" value="" style="edgeStyle=orthogonalEdgeStyle;rounded=0;orthogonalLoop=1;jettySize=auto;html=1;entryX=0;entryY=0.5;entryDx=0;entryDy=0;" edge="1" parent="1" source="3lEEGQnOu_kQJ59tK7sF-18" target="3lEEGQnOu_kQJ59tK7sF-19">
          <mxGeometry relative="1" as="geometry" />
        </mxCell>
        <mxCell id="3lEEGQnOu_kQJ59tK7sF-18" value="http request" style="rounded=0;whiteSpace=wrap;html=1;" vertex="1" parent="1">
          <mxGeometry x="180" y="-334" width="100" height="30" as="geometry" />
        </mxCell>
        <mxCell id="3lEEGQnOu_kQJ59tK7sF-19" value="getMethod" style="rounded=0;whiteSpace=wrap;html=1;" vertex="1" parent="1">
          <mxGeometry x="360" y="-334" width="100" height="30" as="geometry" />
        </mxCell>
        <mxCell id="3lEEGQnOu_kQJ59tK7sF-21" value="getUrl" style="rounded=0;whiteSpace=wrap;html=1;" vertex="1" parent="1">
          <mxGeometry x="360" y="-294" width="100" height="30" as="geometry" />
        </mxCell>
        <mxCell id="3lEEGQnOu_kQJ59tK7sF-22" value="getStatusCode" style="rounded=0;whiteSpace=wrap;html=1;" vertex="1" parent="1">
          <mxGeometry x="360" y="-244" width="100" height="30" as="geometry" />
        </mxCell>
        <mxCell id="3lEEGQnOu_kQJ59tK7sF-24" value="getTTL" style="rounded=0;whiteSpace=wrap;html=1;" vertex="1" parent="1">
          <mxGeometry x="360" y="-198" width="100" height="30" as="geometry" />
        </mxCell>
        <mxCell id="3lEEGQnOu_kQJ59tK7sF-27" value="" style="edgeStyle=orthogonalEdgeStyle;rounded=0;orthogonalLoop=1;jettySize=auto;html=1;entryX=0;entryY=0.5;entryDx=0;entryDy=0;exitX=1;exitY=0.5;exitDx=0;exitDy=0;" edge="1" parent="1" source="3lEEGQnOu_kQJ59tK7sF-18" target="3lEEGQnOu_kQJ59tK7sF-21">
          <mxGeometry relative="1" as="geometry">
            <mxPoint x="310" y="-269" as="sourcePoint" />
            <mxPoint x="360" y="-271.5" as="targetPoint" />
            <Array as="points">
              <mxPoint x="320" y="-319" />
              <mxPoint x="320" y="-279" />
            </Array>
          </mxGeometry>
        </mxCell>
        <mxCell id="3lEEGQnOu_kQJ59tK7sF-28" value="" style="edgeStyle=orthogonalEdgeStyle;rounded=0;orthogonalLoop=1;jettySize=auto;html=1;entryX=0;entryY=0.5;entryDx=0;entryDy=0;exitX=1;exitY=0.5;exitDx=0;exitDy=0;" edge="1" parent="1" source="3lEEGQnOu_kQJ59tK7sF-18" target="3lEEGQnOu_kQJ59tK7sF-22">
          <mxGeometry relative="1" as="geometry">
            <mxPoint x="310" y="-269" as="sourcePoint" />
            <mxPoint x="360" y="-239" as="targetPoint" />
          </mxGeometry>
        </mxCell>
        <mxCell id="3lEEGQnOu_kQJ59tK7sF-29" value="" style="edgeStyle=orthogonalEdgeStyle;rounded=0;orthogonalLoop=1;jettySize=auto;html=1;entryX=0;entryY=0.75;entryDx=0;entryDy=0;exitX=1;exitY=0.5;exitDx=0;exitDy=0;" edge="1" parent="1" source="3lEEGQnOu_kQJ59tK7sF-18" target="3lEEGQnOu_kQJ59tK7sF-24">
          <mxGeometry relative="1" as="geometry">
            <mxPoint x="300" y="-274" as="sourcePoint" />
            <mxPoint x="360" y="-199" as="targetPoint" />
          </mxGeometry>
        </mxCell>
        <mxCell id="3lEEGQnOu_kQJ59tK7sF-30" value="..." style="rounded=0;whiteSpace=wrap;html=1;" vertex="1" parent="1">
          <mxGeometry x="360" y="-153" width="100" height="30" as="geometry" />
        </mxCell>
        <mxCell id="3lEEGQnOu_kQJ59tK7sF-31" value="" style="edgeStyle=orthogonalEdgeStyle;rounded=0;orthogonalLoop=1;jettySize=auto;html=1;entryX=0;entryY=0.5;entryDx=0;entryDy=0;" edge="1" parent="1" source="3lEEGQnOu_kQJ59tK7sF-18" target="3lEEGQnOu_kQJ59tK7sF-30">
          <mxGeometry relative="1" as="geometry">
            <mxPoint x="270" y="-324" as="sourcePoint" />
            <mxPoint x="300" y="-38" as="targetPoint" />
          </mxGeometry>
        </mxCell>
        <mxCell id="3lEEGQnOu_kQJ59tK7sF-35" style="edgeStyle=orthogonalEdgeStyle;rounded=0;orthogonalLoop=1;jettySize=auto;html=1;entryX=0.5;entryY=0;entryDx=0;entryDy=0;" edge="1" parent="1" source="3lEEGQnOu_kQJ59tK7sF-33" target="3lEEGQnOu_kQJ59tK7sF-3">
          <mxGeometry relative="1" as="geometry">
            <mxPoint x="399" y="140" as="targetPoint" />
          </mxGeometry>
        </mxCell>
        <mxCell id="3lEEGQnOu_kQJ59tK7sF-33" value="json" style="rounded=0;whiteSpace=wrap;html=1;dashed=1;" vertex="1" parent="1">
          <mxGeometry x="340.25" y="-17.5" width="116.5" height="29" as="geometry" />
        </mxCell>
      </root>
    </mxGraphModel>
  </diagram>
</mxfile>
